<?xml version="1.0" standalone="no"?>
<!DOCTYPE svg PUBLIC "-//W3C//DTD SVG 20010904//EN"
 "http://www.w3.org/TR/2001/REC-SVG-20010904/DTD/svg10.dtd">
<svg version="1.0" xmlns="http://www.w3.org/2000/svg"
 width="1836.000000pt" height="1836.000000pt" viewBox="0 0 1836.000000 1836.000000"
 preserveAspectRatio="xMidYMid meet">
<metadata>
Created by potrace 1.10, written by Peter Selinger 2001-2011
</metadata>
<g transform="translate(0.000000,1836.000000) scale(0.100000,-0.100000)"
fill="#000000" stroke="none">
<path d="M6650 16970 c-8 -5 -29 -10 -47 -10 -17 0 -35 -4 -38 -10 -3 -5 -17
-10 -31 -10 -14 0 -32 -7 -40 -15 -9 -8 -24 -15 -33 -15 -17 0 -86 -28 -121
-50 -8 -5 -49 -25 -89 -45 -41 -19 -89 -47 -107 -60 -18 -14 -38 -25 -44 -25
-6 0 -13 -7 -16 -15 -4 -8 -12 -15 -18 -15 -14 0 -67 -37 -126 -87 -20 -18
-41 -33 -46 -33 -18 0 -202 -196 -243 -259 -23 -35 -46 -84 -52 -108 -7 -24
-15 -46 -20 -49 -16 -9 -11 -158 6 -180 8 -10 15 -27 15 -36 0 -35 36 -95 89
-150 31 -32 61 -58 68 -58 7 0 22 -5 32 -12 27 -17 79 7 88 40 6 26 -27 138
-53 179 -20 32 -19 240 1 267 8 11 15 27 15 35 0 20 38 98 69 141 55 78 184
197 241 223 8 4 29 16 45 26 49 31 148 78 180 86 17 3 44 12 60 20 17 7 39 15
50 18 20 5 72 23 110 38 39 15 102 20 220 19 102 -1 127 -5 164 -23 51 -25
106 -93 122 -152 19 -69 9 -211 -17 -250 -8 -11 -14 -27 -14 -37 0 -10 -4 -18
-9 -18 -5 0 -14 -13 -20 -30 -5 -16 -15 -30 -20 -30 -6 0 -11 -7 -11 -16 0 -9
-51 -69 -112 -133 -151 -156 -248 -276 -248 -304 0 -8 -3 -17 -7 -21 -19 -19
-33 -91 -33 -174 0 -79 4 -99 25 -140 26 -50 60 -92 74 -92 4 0 33 -21 64 -47
79 -67 114 -93 124 -93 21 0 161 -149 183 -194 30 -63 33 -182 7 -235 -9 -19
-17 -40 -17 -47 0 -12 -37 -83 -50 -94 -3 -3 -14 -23 -25 -44 -11 -22 -32 -53
-47 -70 -16 -17 -28 -35 -28 -41 0 -6 -61 -71 -135 -145 -74 -74 -135 -139
-135 -145 0 -6 -13 -24 -29 -39 -16 -15 -37 -46 -47 -69 -10 -23 -23 -49 -30
-57 -27 -33 -55 -233 -35 -253 6 -6 11 -23 11 -37 0 -14 9 -50 20 -80 11 -30
18 -60 16 -67 -5 -13 -92 -16 -659 -28 -274 -6 -292 -4 -281 39 7 30 -23 96
-59 129 -68 60 -154 57 -228 -10 -44 -40 -63 -94 -53 -148 7 -41 4 -42 -141
-50 -144 -7 -373 -23 -495 -35 -58 -6 -141 -13 -185 -16 -44 -3 -86 -10 -93
-16 -7 -6 -45 -15 -85 -19 -165 -20 -219 -30 -242 -45 -11 -8 -25 -14 -32 -14
-7 0 -24 -10 -38 -22 -21 -18 -25 -30 -25 -79 0 -56 4 -70 40 -154 19 -41 139
-165 161 -165 7 0 20 -6 28 -14 38 -32 118 -46 259 -46 112 0 142 -3 152 -15
7 -8 20 -15 30 -15 62 0 190 -128 190 -190 0 -10 5 -22 10 -25 17 -11 11 -123
-11 -187 -11 -34 -31 -75 -44 -90 -13 -15 -26 -36 -30 -45 -10 -31 -134 -114
-274 -185 -74 -37 -140 -68 -148 -68 -7 0 -21 -4 -31 -9 -9 -5 -24 -12 -32
-15 -8 -4 -49 -24 -90 -46 -41 -22 -80 -40 -87 -40 -7 0 -16 -6 -20 -13 -8
-12 -86 -67 -110 -77 -6 -3 -39 -30 -72 -60 -153 -138 -211 -194 -211 -205 0
-6 -14 -24 -31 -41 -17 -16 -52 -60 -77 -99 -25 -38 -52 -76 -59 -83 -7 -7
-13 -17 -13 -22 0 -5 -12 -28 -27 -52 -16 -24 -34 -52 -41 -63 -7 -11 -19 -36
-28 -55 -9 -19 -24 -53 -35 -76 -10 -22 -19 -44 -19 -49 0 -5 -9 -27 -20 -49
-10 -23 -25 -63 -32 -91 -6 -27 -18 -57 -25 -66 -7 -8 -13 -30 -13 -47 0 -18
-4 -40 -9 -50 -15 -29 -31 -110 -31 -157 0 -24 -4 -47 -10 -50 -6 -3 -10 -48
-10 -99 0 -66 -4 -98 -15 -112 -21 -28 -21 -292 0 -320 10 -14 14 -47 15 -120
0 -55 4 -104 9 -110 5 -5 12 -36 15 -69 13 -129 18 -160 27 -169 5 -6 9 -24 9
-40 0 -17 7 -40 15 -50 8 -11 15 -34 15 -51 0 -18 3 -35 7 -39 7 -6 39 -115
50 -168 3 -15 11 -33 19 -39 8 -6 14 -21 14 -33 0 -12 7 -31 15 -42 8 -10 15
-27 15 -36 0 -32 131 -305 195 -408 19 -30 39 -64 45 -75 32 -61 84 -138 117
-175 13 -14 23 -28 23 -32 0 -4 23 -33 50 -63 28 -30 50 -59 50 -64 0 -10 187
-198 232 -233 l31 -24 -52 -105 c-29 -57 -59 -111 -66 -119 -8 -8 -18 -26 -24
-40 -6 -14 -15 -32 -20 -40 -5 -8 -14 -26 -20 -40 -5 -14 -24 -47 -41 -75 -16
-27 -33 -57 -37 -65 -3 -8 -18 -31 -33 -50 -14 -19 -34 -52 -43 -72 -10 -20
-22 -40 -27 -43 -24 -15 -80 -185 -80 -245 0 -22 4 -48 9 -58 5 -9 14 -35 21
-57 12 -40 45 -85 62 -85 5 0 24 -10 41 -23 51 -37 97 -47 212 -47 115 0 161
10 212 47 17 13 35 23 38 23 9 0 97 75 139 117 55 56 136 164 136 183 0 5 6
15 13 22 14 16 38 57 64 108 9 19 22 42 28 50 6 8 19 40 29 70 11 30 23 61 29
68 5 6 13 27 16 45 10 46 34 45 142 -6 158 -74 189 -87 206 -87 8 0 30 -9 47
-20 18 -10 49 -21 69 -24 20 -2 53 -13 74 -25 21 -11 52 -22 68 -25 41 -7 223
-54 260 -67 70 -25 281 -63 427 -77 42 -4 83 -13 90 -20 8 -8 45 -12 108 -12
53 0 101 -5 106 -10 7 -7 146 -9 415 -6 460 6 608 12 628 29 8 7 48 15 90 19
146 14 357 52 426 77 26 9 146 41 265 70 47 12 99 30 133 47 16 8 36 14 45 14
9 0 26 7 36 15 11 8 26 15 33 15 8 0 43 14 78 30 35 17 69 30 75 30 6 0 40 16
77 36 81 44 114 43 124 -3 3 -18 11 -39 16 -45 6 -7 18 -38 29 -68 10 -30 23
-62 29 -70 6 -8 18 -31 28 -50 9 -19 28 -53 42 -75 14 -22 28 -47 32 -55 11
-24 45 -72 88 -122 22 -26 53 -63 68 -83 16 -19 34 -35 41 -35 7 0 23 -12 37
-26 13 -14 33 -30 44 -35 11 -5 27 -13 35 -18 81 -47 97 -51 213 -51 64 0 129
5 144 11 80 33 100 43 121 63 29 25 62 88 62 115 0 11 5 23 10 26 16 10 11 85
-9 153 -11 34 -17 62 -15 62 6 0 -37 80 -47 85 -5 3 -16 23 -26 43 -9 20 -29
53 -45 73 -15 20 -28 44 -28 52 0 9 -11 28 -24 44 -25 30 -66 102 -66 116 0 5
-11 23 -24 40 -27 36 -96 166 -96 181 0 5 -6 17 -13 25 -7 9 -18 28 -25 44
-11 25 -9 30 19 55 61 53 229 225 229 234 0 4 15 25 33 45 54 63 177 230 177
242 0 6 4 11 9 11 11 0 15 7 75 127 21 43 42 80 46 83 14 10 79 145 83 172 2
10 6 21 11 25 11 11 46 94 46 108 0 8 6 26 14 42 42 87 68 158 80 223 4 19 11
44 15 55 25 63 34 94 38 130 2 22 8 49 13 60 10 22 17 68 26 160 4 33 10 64
15 69 5 6 9 55 9 110 1 73 5 106 15 120 21 28 21 290 0 326 -9 16 -14 55 -15
112 0 48 -4 90 -10 93 -5 3 -10 26 -10 50 0 47 -16 128 -31 157 -5 10 -9 33
-9 52 0 18 -7 39 -15 46 -8 7 -15 20 -15 29 0 50 -112 310 -179 416 -14 22
-36 60 -49 85 -13 24 -36 59 -50 76 -15 18 -43 54 -62 81 -52 71 -312 323
-334 323 -4 0 -35 19 -69 43 -34 24 -96 60 -137 81 -41 21 -82 41 -90 45 -33
17 -87 41 -135 60 -63 24 -215 102 -249 127 -14 11 -41 30 -61 44 -20 14 -43
39 -52 55 -8 17 -23 39 -33 50 -49 54 -76 222 -46 282 8 15 20 42 26 58 6 17
21 41 33 55 30 35 114 90 136 90 10 0 24 7 31 15 10 12 40 15 154 15 98 0 155
5 186 15 78 26 171 79 185 105 7 14 23 34 35 45 20 18 35 47 69 128 6 15 11
54 11 86 0 47 -4 61 -23 79 -13 12 -30 22 -38 22 -8 0 -23 6 -34 14 -11 7 -40
16 -65 20 -25 4 -58 10 -75 12 -16 3 -64 8 -105 10 -41 3 -81 11 -89 17 -8 7
-53 15 -100 20 -47 4 -131 12 -186 17 -55 6 -163 12 -240 15 -77 3 -149 10
-160 15 -11 5 -45 11 -75 12 -47 3 -55 6 -58 24 -2 11 6 28 18 39 27 25 28
120 1 173 -18 35 -91 89 -104 76 -3 -3 -14 0 -26 8 -16 10 -23 10 -33 0 -6 -6
-21 -12 -32 -12 -27 0 -81 -38 -100 -71 -21 -36 -22 -142 -1 -159 8 -7 15 -22
15 -34 l0 -21 -312 3 c-172 1 -326 7 -342 12 -16 6 -160 10 -327 10 l-298 0
-15 31 c-31 62 -21 296 15 359 5 8 15 29 23 45 30 65 84 120 210 215 26 19 68
52 94 73 25 20 52 37 59 37 7 0 13 4 13 10 0 5 11 15 25 22 54 28 225 215 225
245 0 4 6 14 14 22 23 27 56 142 56 196 0 65 -34 169 -72 216 -15 20 -28 41
-28 45 0 5 -14 22 -30 38 -17 16 -30 34 -30 39 0 6 -63 74 -140 151 -76 78
-146 157 -155 176 -8 19 -19 42 -24 50 -31 54 -55 164 -47 216 3 21 8 58 12
82 3 23 10 45 15 48 5 3 9 16 9 28 0 13 7 29 15 36 8 7 15 18 15 25 0 24 110
219 133 236 9 6 35 52 67 116 11 23 24 44 29 47 18 12 53 148 48 189 -11 80
-19 107 -43 130 -13 12 -24 29 -24 37 0 18 -103 120 -121 120 -7 0 -20 6 -28
14 -9 7 -42 23 -74 35 -49 18 -80 21 -195 21 -75 0 -144 -5 -152 -10z"/>
<path d="M4910 15425 c-8 -10 -30 -15 -61 -15 -45 0 -63 -5 -109 -32 -8 -5
-29 -15 -46 -23 -40 -18 -130 -117 -149 -162 -10 -23 -15 -70 -15 -129 l0 -94
25 16 c16 10 25 26 25 42 0 49 82 171 116 172 6 0 19 9 29 20 10 11 28 20 41
20 13 0 26 5 29 10 8 13 159 13 183 1 9 -5 38 -17 64 -26 48 -16 108 -73 108
-100 0 -8 4 -15 9 -15 4 0 17 -21 27 -47 34 -86 18 -281 -26 -308 -5 -3 -10
-19 -10 -34 0 -16 -7 -34 -15 -41 -8 -7 -15 -20 -15 -29 0 -10 -7 -26 -15 -37
-8 -10 -15 -35 -15 -55 0 -20 -7 -42 -15 -49 -19 -16 -19 -77 0 -110 8 -14 14
-37 15 -53 0 -15 14 -51 30 -81 36 -64 150 -176 179 -176 11 0 23 -4 26 -10 8
-14 35 -13 35 1 0 7 -17 31 -37 55 -60 68 -83 101 -83 119 0 9 -5 25 -11 37
-21 39 -27 121 -17 218 5 41 10 56 39 110 25 45 49 105 49 120 0 10 7 23 15
30 8 7 15 18 15 25 0 6 8 27 17 46 22 43 30 192 13 245 -13 44 -28 82 -41 104
-5 8 -13 24 -18 35 -16 35 -134 141 -182 164 -25 11 -63 21 -85 21 -22 0 -49
7 -60 15 -25 19 -48 19 -64 0z"/>
<path d="M8059 15396 c-93 -33 -183 -121 -218 -213 -33 -85 -28 -121 36 -308
81 -232 46 -347 -177 -585 -116 -124 -87 -160 75 -92 93 38 256 182 305 267
41 72 70 170 70 239 0 63 -16 127 -61 245 -18 46 -29 92 -29 124 0 44 4 53 36
83 34 33 52 39 104 34 59 -5 118 -58 144 -130 9 -25 20 -93 25 -151 5 -59 14
-116 20 -127 15 -27 43 -19 82 26 52 59 69 112 69 213 0 78 -4 98 -30 157 -32
70 -102 151 -155 179 -93 48 -222 66 -296 39z"/>
<path d="M5985 14740 c-3 -5 -19 -10 -34 -10 -68 0 -188 -81 -206 -137 -3 -13
-10 -23 -15 -23 -12 0 -40 -57 -53 -105 -24 -97 -1 -244 47 -294 14 -15 26
-32 26 -38 0 -10 12 -21 89 -80 16 -13 38 -23 48 -23 11 0 28 -7 39 -15 22
-17 229 -22 239 -5 3 5 25 18 48 29 72 33 167 139 167 188 0 12 7 28 15 37 11
11 15 38 15 109 0 86 -3 99 -31 153 -33 62 -124 164 -146 164 -7 0 -27 9 -45
20 -18 11 -47 20 -65 20 -17 0 -35 5 -38 10 -3 6 -26 10 -50 10 -24 0 -47 -4
-50 -10z"/>
<path d="M4557 14452 c-15 -2 -43 -19 -62 -38 -30 -30 -35 -41 -35 -83 0 -96
58 -139 168 -124 43 5 82 39 82 69 0 8 6 23 12 34 11 16 9 26 -7 57 -38 73
-79 96 -158 85z"/>
<path d="M8641 14019 c-35 -34 -35 -37 -19 -90 8 -27 22 -45 47 -60 34 -20 36
-20 66 -3 56 32 75 55 75 93 0 86 -106 124 -169 60z"/>
<path d="M7134 14015 c-10 -8 -27 -15 -37 -15 -10 0 -34 -14 -53 -32 -31 -30
-34 -37 -34 -94 0 -54 4 -65 31 -97 61 -72 147 -70 213 4 32 34 36 45 36 92 0
48 -3 56 -37 88 -38 36 -83 69 -93 69 -4 0 -15 -7 -26 -15z"/>
</g>
</svg>
